<svg width="28" height="27" viewBox="0 0 28 27" fill="none" xmlns="http://www.w3.org/2000/svg">
<path d="M21.12 4.77984C20.8036 4.77984 20.4942 4.87368 20.2311 5.04949C19.968 5.2253 19.7629 5.47518 19.6418 5.76754C19.5207 6.05991 19.489 6.38161 19.5508 6.69198C19.6125 7.00235 19.7649 7.28744 19.9886 7.51121C20.2124 7.73497 20.4975 7.88736 20.8079 7.94909C21.1182 8.01083 21.44 7.97914 21.7323 7.85804C22.0247 7.73694 22.2746 7.53187 22.4504 7.26875C22.6262 7.00563 22.72 6.69629 22.72 6.37984C22.72 5.95549 22.5514 5.54852 22.2514 5.24847C21.9513 4.94841 21.5444 4.77984 21.12 4.77984ZM27.2534 8.0065C27.2274 6.90023 27.0202 5.80571 26.64 4.7665C26.301 3.87735 25.7733 3.07221 25.0934 2.4065C24.4331 1.72307 23.6261 1.19874 22.7334 0.87317C21.6969 0.481385 20.6012 0.269451 19.4934 0.246504C18.08 0.166504 17.6267 0.166504 14 0.166504C10.3734 0.166504 9.92002 0.166504 8.50669 0.246504C7.39889 0.269451 6.30314 0.481385 5.26669 0.87317C4.37559 1.20204 3.56927 1.72592 2.90669 2.4065C2.22325 3.06674 1.69892 3.87376 1.37335 4.7665C0.981568 5.80296 0.769634 6.89871 0.746687 8.0065C0.666687 9.41984 0.666687 9.87317 0.666687 13.4998C0.666687 17.1265 0.666687 17.5798 0.746687 18.9932C0.769634 20.101 0.981568 21.1967 1.37335 22.2332C1.69892 23.1259 2.22325 23.9329 2.90669 24.5932C3.56927 25.2738 4.37559 25.7976 5.26669 26.1265C6.30314 26.5183 7.39889 26.7302 8.50669 26.7532C9.92002 26.8332 10.3734 26.8332 14 26.8332C17.6267 26.8332 18.08 26.8332 19.4934 26.7532C20.6012 26.7302 21.6969 26.5183 22.7334 26.1265C23.6261 25.8009 24.4331 25.2766 25.0934 24.5932C25.7763 23.9299 26.3045 23.1241 26.64 22.2332C27.0202 21.194 27.2274 20.0994 27.2534 18.9932C27.2534 17.5798 27.3334 17.1265 27.3334 13.4998C27.3334 9.87317 27.3334 9.41984 27.2534 8.0065ZM24.8534 18.8332C24.8436 19.6795 24.6904 20.5181 24.4 21.3132C24.1871 21.8934 23.8452 22.4177 23.4 22.8465C22.9675 23.2872 22.4443 23.6284 21.8667 23.8465C21.0716 24.1368 20.233 24.2901 19.3867 24.2998C18.0534 24.3665 17.56 24.3798 14.0534 24.3798C10.5467 24.3798 10.0534 24.3798 8.72002 24.2998C7.84121 24.3163 6.96615 24.181 6.13335 23.8998C5.58106 23.6706 5.08183 23.3302 4.66669 22.8998C4.22414 22.4715 3.88648 21.9468 3.68002 21.3665C3.3545 20.56 3.17394 19.7024 3.14669 18.8332C3.14669 17.4998 3.06669 17.0065 3.06669 13.4998C3.06669 9.99317 3.06669 9.49984 3.14669 8.1665C3.15266 7.30124 3.31062 6.44376 3.61335 5.63317C3.84808 5.07038 4.20837 4.56871 4.66669 4.1665C5.07177 3.70806 5.5724 3.34396 6.13335 3.09984C6.94609 2.80656 7.80268 2.65328 8.66669 2.6465C10 2.6465 10.4934 2.5665 14 2.5665C17.5067 2.5665 18 2.5665 19.3334 2.6465C20.1797 2.65621 21.0183 2.8095 21.8134 3.09984C22.4193 3.32471 22.9631 3.6903 23.4 4.1665C23.837 4.57607 24.1784 5.07681 24.4 5.63317C24.6964 6.44508 24.8497 7.30221 24.8534 8.1665C24.92 9.49984 24.9334 9.99317 24.9334 13.4998C24.9334 17.0065 24.92 17.4998 24.8534 18.8332ZM14 6.65984C12.6478 6.66247 11.3266 7.06587 10.2036 7.81906C9.08048 8.57225 8.20586 9.64143 7.6902 10.8915C7.17454 12.1416 7.04099 13.5165 7.30641 14.8424C7.57184 16.1684 8.22433 17.3859 9.18145 18.3411C10.1386 19.2964 11.3574 19.9465 12.6838 20.2094C14.0103 20.4722 15.3849 20.336 16.634 19.8179C17.883 19.2998 18.9505 18.4231 19.7015 17.2985C20.4525 16.174 20.8533 14.8521 20.8534 13.4998C20.8551 12.6 20.679 11.7086 20.335 10.8771C19.9911 10.0456 19.4861 9.29025 18.8492 8.65457C18.2123 8.01889 17.456 7.51541 16.6237 7.17308C15.7915 6.83074 14.8999 6.65632 14 6.65984ZM14 17.9398C13.1219 17.9398 12.2634 17.6794 11.5333 17.1916C10.8031 16.7037 10.234 16.0103 9.89799 15.199C9.56194 14.3876 9.47401 13.4949 9.64533 12.6336C9.81665 11.7724 10.2395 10.9812 10.8605 10.3603C11.4814 9.73934 12.2725 9.31647 13.1338 9.14515C13.9951 8.97383 14.8878 9.06176 15.6991 9.39781C16.5104 9.73386 17.2039 10.3029 17.6917 11.0331C18.1796 11.7633 18.44 12.6217 18.44 13.4998C18.44 14.0829 18.3252 14.6603 18.102 15.199C17.8789 15.7376 17.5519 16.2271 17.1396 16.6394C16.7273 17.0517 16.2378 17.3787 15.6991 17.6019C15.1604 17.825 14.5831 17.9398 14 17.9398Z" fill="black"/>
</svg>
