<svg width="34" height="50" viewBox="0 0 34 50" fill="none" xmlns="http://www.w3.org/2000/svg">
<path fill-rule="evenodd" clip-rule="evenodd" d="M31.5104 0.690849C31.0377 0.91168 30.7018 1.2514 30.5469 1.66525C30.4719 1.86572 30.438 5.97734 30.438 14.8813C30.438 23.1775 30.4025 27.794 30.339 27.7719C30.2845 27.7529 27.9289 25.4084 25.1043 22.5617C22.2796 19.7151 19.8359 17.2842 19.6738 17.1598C19.2265 16.8164 18.3075 16.8393 17.8788 17.2045C17.2568 17.7342 17.0532 18.6071 17.3965 19.2724C17.4809 19.4361 19.9212 21.9571 22.8194 24.8746C25.7175 27.792 28.0887 30.2229 28.0887 30.2765C28.0887 30.3367 23.0181 30.3738 14.7406 30.3738C1.66347 30.3738 1.38391 30.3779 0.97616 30.5776C0.419594 30.8504 0 31.5066 0 32.1044C0 32.8599 0.434609 33.5044 1.17462 33.8461C1.28697 33.898 3.89432 33.9638 6.96886 33.9922L12.5587 34.0439L11.5077 35.6981C10.9296 36.6079 9.33853 39.0969 7.97189 41.2292C6.60534 43.3615 5.21194 45.5387 4.87549 46.0674C4.16408 47.1851 4.05428 47.6689 4.33986 48.4258C4.5801 49.0627 5.23533 49.5 5.94919 49.5C6.77755 49.5 7.16906 49.1923 7.98884 47.8975C8.24072 47.4995 8.78973 46.6388 9.20861 45.9849C9.62759 45.331 11.523 42.3651 13.4208 39.3941L16.8712 33.9922H18.5845H20.2979L20.8053 34.6901C21.0843 35.0738 23.3894 38.2797 25.9276 41.814C28.4658 45.3484 30.6991 48.3793 30.8905 48.5494C31.9953 49.5312 33.8039 48.6092 33.808 47.0621C33.809 46.7034 33.3998 46.006 32.2661 44.4341C26.6528 36.6514 24.81 34.0715 24.8412 34.0399C24.8613 34.0195 26.531 33.9971 28.5516 33.99C30.6944 33.9824 32.3953 33.9327 32.6331 33.8705C33.1923 33.7245 33.5714 33.429 33.8119 32.9519C34.0121 32.5547 34.0145 32.3388 33.9884 17.1087L33.9618 1.66825L33.6672 1.27735C33.3425 0.846547 32.6999 0.5 32.2254 0.5C32.0569 0.5 31.7351 0.585913 31.5104 0.690849Z" fill="white"/>
</svg>
