<svg width="28" height="28" viewBox="0 0 28 28" fill="none" xmlns="http://www.w3.org/2000/svg">
<path d="M3.11064 2.83317H9.09731L11.0266 7.65717L7.92664 9.72384C7.74409 9.84564 7.59442 10.0106 7.49091 10.2041C7.38741 10.3976 7.33328 10.6137 7.33331 10.8332C7.33731 10.9585 7.33331 10.8345 7.33331 10.8345V10.8625C7.3341 10.9221 7.33677 10.9817 7.34131 11.0412C7.34931 11.1505 7.36264 11.2985 7.38797 11.4812C7.43997 11.8412 7.53998 12.3372 7.73464 12.9212C8.12664 14.0945 8.89464 15.6132 10.3906 17.1092C11.8866 18.6052 13.4053 19.3732 14.5773 19.7652C15.1626 19.9598 15.6573 20.0585 16.02 20.1118C16.2247 20.1404 16.4307 20.1582 16.6373 20.1652L16.6546 20.1665H16.6653C16.6653 20.1665 16.8146 20.1585 16.6666 20.1665C16.9142 20.1664 17.1568 20.0973 17.3673 19.9671C17.5779 19.8369 17.748 19.6506 17.8586 19.4292L18.752 17.6425L24.6666 18.6292V24.3892C21.852 24.7958 14.2493 25.1972 8.27597 19.2238C2.30264 13.2505 2.70264 5.6465 3.11064 2.83317ZM10.0973 11.4812L12.5066 9.87584C13.0156 9.53633 13.3924 9.03213 13.5737 8.44779C13.7551 7.86345 13.73 7.23453 13.5026 6.6665L11.5733 1.8425C11.3753 1.34771 11.0336 0.92359 10.5923 0.624853C10.151 0.326116 9.63024 0.166468 9.09731 0.166504H3.04131C1.82931 0.166504 0.689309 1.00784 0.490642 2.3225C0.0373089 5.31184 -0.577358 14.1412 6.39064 21.1092C13.3586 28.0772 22.188 27.4612 25.1773 27.0092C26.492 26.8092 27.3333 25.6705 27.3333 24.4585V18.6292C27.3334 17.9979 27.1095 17.3871 26.7016 16.9054C26.2936 16.4237 25.728 16.1023 25.1053 15.9985L19.1906 15.0132C18.6281 14.9193 18.0503 15.0082 17.542 15.2669C17.0337 15.5256 16.6218 15.9404 16.3666 16.4505L15.9053 17.3745C15.7422 17.3343 15.5807 17.2876 15.4213 17.2345C14.5946 16.9598 13.4466 16.3945 12.276 15.2238C11.1053 14.0532 10.54 12.9052 10.2653 12.0772C10.1997 11.8814 10.1441 11.6825 10.0986 11.4812H10.0973Z" fill="black"/>
</svg>
