<svg width="28" height="25" viewBox="0 0 28 25" fill="none" xmlns="http://www.w3.org/2000/svg">
<path fill-rule="evenodd" clip-rule="evenodd" d="M6.71734 15.1932C6.77463 15.2122 6.83354 15.2261 6.89334 15.2345C7.27057 16.1234 7.64568 17.0131 8.01867 17.9038C8.68934 19.5065 9.36534 21.1572 9.51334 21.6318C9.69867 22.2158 9.89334 22.6132 10.1067 22.8852C10.2173 23.0238 10.344 23.1465 10.4933 23.2398C10.5711 23.2885 10.6544 23.3279 10.7413 23.3572C11.168 23.5172 11.5573 23.4505 11.8013 23.3692C11.9445 23.3203 12.0808 23.2531 12.2067 23.1692L12.2133 23.1665L15.9813 20.8172L20.3347 24.1532C20.3987 24.2025 20.468 24.2438 20.5427 24.2772C21.0653 24.5038 21.572 24.5838 22.0493 24.5198C22.524 24.4532 22.9013 24.2545 23.1827 24.0292C23.5057 23.7688 23.7633 23.4363 23.9347 23.0585L23.9467 23.0292L23.9507 23.0185L23.9533 23.0132V23.0105L23.9547 23.0092C23.9778 22.9518 23.9957 22.8924 24.008 22.8318L27.9813 2.79849C27.9939 2.73436 28.0001 2.66916 28 2.60382C28 2.01715 27.7787 1.45849 27.26 1.12115C26.8147 0.831819 26.32 0.818485 26.0067 0.842485C25.6707 0.869152 25.3587 0.951819 25.1493 1.01849C25.0322 1.05563 24.9165 1.09744 24.8027 1.14382L24.788 1.15049L2.50267 9.89182L2.5 9.89315C2.4246 9.92089 2.35032 9.95158 2.27734 9.98515C2.10062 10.0646 1.9311 10.1592 1.77067 10.2678C1.468 10.4745 0.770669 11.0425 0.889336 11.9812C0.982669 12.7278 1.49467 13.1878 1.808 13.4092C1.97867 13.5305 2.14134 13.6172 2.26134 13.6745C2.31467 13.7012 2.42934 13.7465 2.47867 13.7678L2.492 13.7718L6.71734 15.1932ZM25.568 2.99049H25.5653C25.5539 2.99558 25.5423 3.00047 25.5307 3.00515L3.21867 11.7585C3.20719 11.7631 3.19563 11.7676 3.184 11.7718L3.17067 11.7758C3.12991 11.7918 3.08987 11.8096 3.05067 11.8292C3.08778 11.8504 3.12606 11.8696 3.16534 11.8865L7.35467 13.2972C7.42953 13.3224 7.50114 13.3564 7.568 13.3985L21.404 5.29849L21.4173 5.29182C21.4711 5.25916 21.5262 5.22891 21.5827 5.20115C21.6787 5.15182 21.832 5.07982 22.0053 5.02649C22.1253 4.98915 22.4813 4.88382 22.8653 5.00782C23.069 5.07202 23.2505 5.1922 23.3892 5.35465C23.5278 5.51709 23.618 5.71525 23.6493 5.92649C23.699 6.11149 23.7004 6.30613 23.6533 6.49182C23.56 6.85849 23.304 7.14382 23.0693 7.36249C22.8693 7.54915 20.276 10.0505 17.7173 12.5198L14.2333 15.8798L13.6133 16.4798L21.4427 22.4825C21.5483 22.5268 21.6631 22.5451 21.7773 22.5358C21.8349 22.528 21.889 22.504 21.9333 22.4665C21.9874 22.4209 22.0338 22.3668 22.0707 22.3065L22.0733 22.3052L25.9267 2.87449C25.8053 2.90368 25.6863 2.94201 25.5707 2.98915L25.568 2.99049ZM14.2867 19.5158L12.724 18.3185L12.3453 20.7252L14.2867 19.5158ZM11.2907 15.9425L12.844 14.4425L16.328 11.0798L17.6253 9.82915L8.932 14.9185L8.97867 15.0278C9.52694 16.3231 10.0692 17.6209 10.6053 18.9212L10.9827 16.5212C11.0168 16.2986 11.1254 16.0954 11.2907 15.9425Z" fill="black"/>
</svg>
