<svg width="31" height="30" viewBox="0 0 31 30" fill="none" xmlns="http://www.w3.org/2000/svg">
<path d="M0.5 29.5L2.60875 22.053C1.3075 19.8732 0.62375 17.4022 0.625 14.8683C0.62875 6.94646 7.29749 0.5 15.4912 0.5C19.4675 0.501208 23.2 1.99833 26.0074 4.71467C28.8137 7.431 30.3587 11.0415 30.3574 14.8816C30.3537 22.8046 23.6849 29.2511 15.4912 29.2511C13.0037 29.2499 10.5525 28.6469 8.38123 27.5014L0.5 29.5ZM8.74623 24.8999C10.8412 26.1022 12.8412 26.8223 15.4862 26.8235C22.2962 26.8235 27.8437 21.4658 27.8474 14.8792C27.8499 8.27925 22.3287 2.92875 15.4962 2.92633C8.68123 2.92633 3.13749 8.28408 3.13499 14.8695C3.13374 17.558 3.94874 19.5711 5.31749 21.6772L4.06874 26.0853L8.74623 24.8999ZM22.98 18.2975C22.8875 18.1477 22.64 18.0583 22.2675 17.8783C21.8962 17.6982 20.07 16.8294 19.7287 16.7098C19.3887 16.5902 19.1412 16.5298 18.8925 16.8898C18.645 17.2487 17.9325 18.0583 17.7162 18.2975C17.5 18.5368 17.2825 18.567 16.9112 18.387C16.54 18.2069 15.3425 17.8287 13.9237 16.6047C12.82 15.6525 12.0737 14.4768 11.8575 14.1167C11.6412 13.7578 11.835 13.5633 12.02 13.3845C12.1875 13.2238 12.3912 12.9652 12.5775 12.7549C12.7662 12.5471 12.8275 12.3973 12.9525 12.1568C13.0762 11.9175 13.015 11.7073 12.9212 11.5273C12.8275 11.3484 12.085 9.58063 11.7762 8.86167C11.4737 8.16204 11.1675 8.25629 10.94 8.24542L10.2275 8.23333C9.97998 8.23333 9.57748 8.32275 9.23748 8.68283C8.89748 9.04292 7.93748 9.9105 7.93748 11.6783C7.93748 13.4461 9.26873 15.1535 9.45373 15.3927C9.63998 15.632 12.0725 19.2594 15.7987 20.8145C16.685 21.1843 17.3775 21.4054 17.9162 21.5709C18.8062 21.844 19.6162 21.8053 20.2562 21.7135C20.97 21.6108 22.4537 20.8447 22.7637 20.0061C23.0737 19.1663 23.0737 18.4474 22.98 18.2975Z" fill="white"/>
</svg>
