<svg width="28" height="27" viewBox="0 0 28 27" fill="none" xmlns="http://www.w3.org/2000/svg">
<path d="M23.4 4.04658C22.1776 2.81182 20.7216 1.83281 19.1169 1.16665C17.5121 0.500496 15.7908 0.16053 14.0533 0.166583C6.77334 0.166583 0.840004 6.09992 0.840004 13.3799C0.840004 15.7132 1.45334 17.9799 2.6 19.9799L0.733337 26.8333L7.73334 24.9933C9.66667 26.0466 11.84 26.6066 14.0533 26.6066C21.3333 26.6066 27.2667 20.6733 27.2667 13.3932C27.2667 9.85992 25.8933 6.53992 23.4 4.04658ZM14.0533 24.3666C12.08 24.3666 10.1467 23.8333 8.45334 22.8333L8.05334 22.5933L3.89334 23.6866L5 19.6333L4.73334 19.2199C3.637 17.4692 3.05486 15.4456 3.05334 13.3799C3.05334 7.32658 7.98667 2.39325 14.04 2.39325C16.9733 2.39325 19.7333 3.53992 21.8 5.61992C22.8233 6.63854 23.6343 7.85013 24.1859 9.18448C24.7375 10.5188 25.0187 11.9494 25.0133 13.3932C25.04 19.4466 20.1067 24.3666 14.0533 24.3666ZM20.08 16.1532C19.7467 15.9932 18.12 15.1933 17.8267 15.0732C17.52 14.9666 17.3067 14.9132 17.08 15.2332C16.8533 15.5666 16.2267 16.3132 16.04 16.5266C15.8533 16.7533 15.6533 16.7799 15.32 16.6066C14.9867 16.4466 13.92 16.0866 12.6667 14.9666C11.68 14.0866 11.0267 13.0066 10.8267 12.6733C10.64 12.3399 10.8 12.1666 10.9733 11.9932C11.12 11.8466 11.3067 11.6066 11.4667 11.4199C11.6267 11.2332 11.6933 11.0866 11.8 10.8732C11.9067 10.6466 11.8533 10.4599 11.7733 10.2999C11.6933 10.1399 11.0267 8.51325 10.76 7.84658C10.4933 7.20658 10.2133 7.28658 10.0133 7.27325H9.37334C9.14667 7.27325 8.8 7.35325 8.49334 7.68658C8.2 8.01992 7.34667 8.81992 7.34667 10.4466C7.34667 12.0733 8.53334 13.6466 8.69334 13.8599C8.85334 14.0866 11.0267 17.4199 14.3333 18.8466C15.12 19.1933 15.7333 19.3933 16.2133 19.5399C17 19.7933 17.72 19.7532 18.2933 19.6732C18.9333 19.5799 20.2533 18.8732 20.52 18.0999C20.8 17.3266 20.8 16.6733 20.7067 16.5266C20.6133 16.3799 20.4133 16.3132 20.08 16.1532Z" fill="black"/>
</svg>
